# xmcd
#
# Track frame offsets:
#        150
#        8992
#        37187
#        57340
#        67646
#        106681
#        141103
#        187987
#        213017
#        243020
#        276354
#
# Disc length: 3934 seconds
#
# Revision: 6
# Processed by: cddbd v1.5.2PL0 Copyright (c) Steve Scherf et al.
# Submitted via: ExactAudioCopy v0.99pb4
#
DISCID=8e0f5c0b
DTITLE=Sigur Ros - Takk...
DYEAR=2005
DGENRE=Post-rock
TTITLE0=Takk...
TTITLE1=Glósóli
TTITLE2=Hoppípolla
TTITLE3=Með blóðnasir
TTITLE4=Sé lest
TTITLE5=Sæglópur
TTITLE6=Mílanó
TTITLE7=Gong
TTITLE8=Andvari
TTITLE9=Svo hljótt
TTITLE10=Heysátan
EXTD=YEAR: 2005
EXTT0=
EXTT1=
EXTT2=
EXTT3=
EXTT4=
EXTT5=
EXTT6=
EXTT7=
EXTT8=
EXTT9=
EXTT10=
PLAYORDER=
